<svg width="365" height="112" viewBox="0 0 365 112" fill="none" xmlns="http://www.w3.org/2000/svg">
<path d="M78.6226 23.8703C72.2824 29.8265 64.2282 31.9028 33.4418 26.569C13.6403 23.1378 2.45449 40.2476 5.11042 60.5055C6.42873 70.5614 9.40849 80.0672 14.5364 87.9402C20.6609 97.3352 43.3149 115.233 43.9741 97.2767C46.6948 23.3034 56.226 75.7402 69.0808 73.0315C77.7852 71.197 71.358 8.19249 103.499 92.4285C112.243 115.345 136.103 69.7429 132.65 43.6358C131.373 33.9803 128.6 24.8278 123.788 17.1701C111.78 -1.94405 91.4242 11.8408 78.6226 23.8703Z" fill="url(#paint0_radial)"/>
<mask id="mask0" mask-type="alpha" maskUnits="userSpaceOnUse" x="0" y="5" width="140" height="107">
<path d="M78.6226 23.8703C72.2824 29.8265 64.2282 31.9028 33.4418 26.569C13.6403 23.1378 2.45449 40.2476 5.11042 60.5055C6.42873 70.5614 9.40849 80.0672 14.5364 87.9402C20.6609 97.3352 43.3149 115.233 43.9741 97.2767C46.6948 23.3034 56.226 75.7402 69.0808 73.0315C77.7852 71.197 71.358 8.19249 103.499 92.4285C112.243 115.345 136.103 69.7429 132.65 43.6358C131.373 33.9803 128.6 24.8278 123.788 17.1701C111.78 -1.94405 91.4242 11.8408 78.6226 23.8703Z" fill="white"/>
</mask>
<g mask="url(#mask0)">
<path d="M25.2859 105.547C25.2859 105.547 31.4099 60.8711 67.2703 91.1699C98.3333 117.414 129.167 72.1424 129.167 72.1424L131.797 109.862L77.1189 129.951L18.2189 137.742L25.2859 105.547Z" fill="url(#paint1_linear)"/>
<path d="M39.8623 8.82885C39.8623 8.82885 12.4993 12.4482 23.1419 51.8808C28.0741 70.1536 27.6497 91.8299 0.446468 102.704C-26.7568 113.578 -21.3067 11.3987 -21.3067 11.3987L45.1998 -41.7931L39.8623 8.82885Z" fill="url(#paint2_radial)"/>
<path d="M62.0047 -0.243454C62.0047 -0.243454 65.4299 47.1119 92.584 42.5193C119.738 37.9293 133.301 48.5286 136.168 69.6006C139.036 90.6726 166.963 21.4073 166.963 21.4073L111.179 -31.0099L62.0047 -0.243454Z" fill="url(#paint3_radial)"/>
</g>
<ellipse cx="63.6025" cy="98.0171" rx="4.95299" ry="5.28657" transform="rotate(-7.53482 63.6025 98.0171)" fill="#E05500"/>
<ellipse cx="83.2427" cy="95.4193" rx="4.95299" ry="5.28657" transform="rotate(-7.53482 83.2427 95.4193)" fill="#E05500"/>
<path d="M156.562 80.7188V49.875C156.562 46.5625 157.969 43.1875 160.781 39.75C164.531 35.25 169.281 32.9688 175.031 32.9062V46.125C172.469 46.1875 170.781 47.625 169.969 50.4375C169.844 50.875 169.781 51.1875 169.781 51.375V80.7188C169.781 83.2812 171.188 85.0312 174 85.9688C174.438 86.0938 174.75 86.1562 174.938 86.1562V99.4688C171.375 99.4688 167.812 98.1875 164.25 95.625C159.188 91.875 156.625 86.9062 156.562 80.7188ZM180.094 99.4688V86.1562C181.094 86.1562 182.219 85.625 183.469 84.5625C184.656 83.5 185.281 82.2188 185.344 80.7188V51.375C185.344 50.25 184.812 49.0625 183.75 47.8125C182.75 46.75 181.531 46.1875 180.094 46.125V32.9062C186.406 32.9062 191.469 35.625 195.281 41.0625C197.469 44.1875 198.562 47.125 198.562 49.875V80.7188C198.562 87.6562 195.469 92.9688 189.281 96.6562C186.031 98.5312 182.969 99.4688 180.094 99.4688ZM204.938 92.4375C204.938 89.625 206.156 87.5312 208.594 86.1562C209.656 85.5938 210.781 85.3125 211.969 85.3125C214.781 85.3125 216.844 86.5312 218.156 88.9688C218.719 90.0312 219 91.1875 219 92.4375C219 95.3125 217.75 97.375 215.25 98.625C214.188 99.1875 213.094 99.4688 211.969 99.4688C209.094 99.4688 207.031 98.2188 205.781 95.7188C205.219 94.6562 204.938 93.5625 204.938 92.4375ZM225.562 99V33.375H238.781V59.5312H242.438V72.4688H238.781V99H225.562ZM247.594 72.4688V59.5312H251.25V33.375H264.469V99H251.25V72.4688H247.594ZM272.156 99V33.375H285.375V99H272.156ZM292.125 92.4375C292.125 89.625 293.344 87.5312 295.781 86.1562C296.844 85.5938 297.969 85.3125 299.156 85.3125C301.969 85.3125 304.031 86.5312 305.344 88.9688C305.906 90.0312 306.188 91.1875 306.188 92.4375C306.188 95.3125 304.938 97.375 302.438 98.625C301.375 99.1875 300.281 99.4688 299.156 99.4688C296.281 99.4688 294.219 98.2188 292.969 95.7188C292.406 94.6562 292.125 93.5625 292.125 92.4375ZM312.562 80.7188V49.875C312.562 46.5625 313.969 43.1875 316.781 39.75C320.531 35.25 325.281 32.9688 331.031 32.9062V46.125C328.469 46.1875 326.781 47.625 325.969 50.4375C325.844 50.875 325.781 51.1875 325.781 51.375V80.7188C325.781 83.2812 327.188 85.0312 330 85.9688C330.438 86.0938 330.75 86.1562 330.938 86.1562V99.4688C327.375 99.4688 323.812 98.1875 320.25 95.625C315.188 91.875 312.625 86.9062 312.562 80.7188ZM336.094 99.4688V86.1562C337.094 86.1562 338.219 85.625 339.469 84.5625C340.656 83.5 341.281 82.2188 341.344 80.7188V51.375C341.344 50.25 340.812 49.0625 339.75 47.8125C338.75 46.75 337.531 46.1875 336.094 46.125V32.9062C342.406 32.9062 347.469 35.625 351.281 41.0625C353.469 44.1875 354.562 47.125 354.562 49.875V80.7188C354.562 87.6562 351.469 92.9688 345.281 96.6562C342.031 98.5312 338.969 99.4688 336.094 99.4688Z" fill="#EB5757"/>
<defs>
<radialGradient id="paint0_radial" cx="0" cy="0" r="1" gradientUnits="userSpaceOnUse" gradientTransform="translate(69.7106 58.3382) rotate(-7.55358) scale(114.865 122.729)">
<stop stop-color="#FF3E80"/>
<stop offset="1" stop-color="#C41700"/>
</radialGradient>
<linearGradient id="paint1_linear" x1="3.75718" y1="107.216" x2="164.689" y2="96.7486" gradientUnits="userSpaceOnUse">
<stop stop-color="#FF9900"/>
<stop offset="1" stop-color="#C41700"/>
</linearGradient>
<radialGradient id="paint2_radial" cx="0" cy="0" r="1" gradientUnits="userSpaceOnUse" gradientTransform="translate(15.0679 31.6677) rotate(-7.58126) scale(70.5445 186.623)">
<stop stop-color="#FF3E80"/>
<stop offset="1" stop-color="#C41700"/>
</radialGradient>
<radialGradient id="paint3_radial" cx="0" cy="0" r="1" gradientUnits="userSpaceOnUse" gradientTransform="translate(116.016 22.4639) rotate(-7.56304) scale(90.4396 145.359)">
<stop stop-color="#FF3E80"/>
<stop offset="1" stop-color="#C41700"/>
</radialGradient>
</defs>
</svg>
