<svg width="480" height="112" viewBox="0 0 480 112" fill="none" xmlns="http://www.w3.org/2000/svg">
<path d="M78.6226 23.8703C72.2824 29.8265 64.2282 31.9028 33.4418 26.569C13.6403 23.1378 2.45449 40.2476 5.11042 60.5055C6.42873 70.5614 9.40849 80.0672 14.5364 87.9402C20.6609 97.3352 43.3149 115.233 43.9741 97.2767C46.6948 23.3034 56.226 75.7402 69.0808 73.0315C77.7852 71.197 71.358 8.19249 103.499 92.4285C112.243 115.345 136.103 69.7429 132.65 43.6358C131.373 33.9803 128.6 24.8278 123.788 17.1701C111.78 -1.94405 91.4242 11.8408 78.6226 23.8703Z" fill="url(#paint0_radial)"/>
<mask id="mask0" mask-type="alpha" maskUnits="userSpaceOnUse" x="0" y="5" width="140" height="107">
<path d="M78.6226 23.8703C72.2824 29.8265 64.2282 31.9028 33.4418 26.569C13.6403 23.1378 2.45449 40.2476 5.11042 60.5055C6.42873 70.5614 9.40849 80.0672 14.5364 87.9402C20.6609 97.3352 43.3149 115.233 43.9741 97.2767C46.6948 23.3034 56.226 75.7402 69.0808 73.0315C77.7852 71.197 71.358 8.19249 103.499 92.4285C112.243 115.345 136.103 69.7429 132.65 43.6358C131.373 33.9803 128.6 24.8278 123.788 17.1701C111.78 -1.94405 91.4242 11.8408 78.6226 23.8703Z" fill="white"/>
</mask>
<g mask="url(#mask0)">
<path d="M25.2859 105.547C25.2859 105.547 31.4099 60.8711 67.2703 91.1699C98.3333 117.414 129.167 72.1424 129.167 72.1424L131.797 109.862L77.1189 129.951L18.2189 137.742L25.2859 105.547Z" fill="url(#paint1_linear)"/>
<path d="M39.8623 8.82885C39.8623 8.82885 12.4993 12.4482 23.1419 51.8808C28.0741 70.1536 27.6497 91.8299 0.446469 102.704C-26.7568 113.578 -21.3067 11.3987 -21.3067 11.3987L45.1998 -41.7931L39.8623 8.82885Z" fill="url(#paint2_radial)"/>
<path d="M62.0047 -0.243455C62.0047 -0.243455 65.4299 47.1119 92.584 42.5193C119.738 37.9293 133.301 48.5286 136.168 69.6006C139.036 90.6726 166.963 21.4073 166.963 21.4073L111.179 -31.0099L62.0047 -0.243455Z" fill="url(#paint3_radial)"/>
</g>
<ellipse cx="63.6025" cy="98.0171" rx="4.95299" ry="5.28657" transform="rotate(-7.53482 63.6025 98.0171)" fill="#E05500"/>
<ellipse cx="83.2427" cy="95.4193" rx="4.95299" ry="5.28657" transform="rotate(-7.53482 83.2427 95.4193)" fill="#E05500"/>
<path d="M154.406 46.3125V33.375H195V46.3125H181.312V99H168.094V46.3125H154.406ZM199.406 99L211.5 44.4375H212.906L218.531 70.6875L212.344 99H199.406ZM219.375 91.0312L222.188 78.0938H225.562L215.625 33.375H228.656L244.125 99H231L229.125 91.0312H219.375ZM249.844 99V33.375H263.062V99H249.844ZM267.938 33.375L286.969 99H291.375L296.344 84.1875L281.438 33.375H267.938ZM292.031 50.8125L298.219 71.8125H299.156C299.594 70.375 300.25 68.2188 301.125 65.3438C302.312 61.2812 303.219 58.25 303.844 56.25L316.219 99H320.625L325.5 84.1875L310.688 33.375H297.188L292.031 50.8125ZM321.656 50.8125L327.844 71.8125H328.781L340.312 33.375H326.812L321.656 50.8125ZM344.062 99V85.7812L363.75 46.5H344.062V33.375H378.375V46.2188L358.688 85.5H378.375V99H344.062ZM384.75 80.7188V49.875C384.75 46.5625 386.156 43.1875 388.969 39.75C392.719 35.25 397.469 32.9688 403.219 32.9062V46.125C400.656 46.1875 398.969 47.625 398.156 50.4375C398.031 50.875 397.969 51.1875 397.969 51.375V80.7188C397.969 83.2812 399.375 85.0312 402.188 85.9688C402.625 86.0938 402.938 86.1562 403.125 86.1562V99.4688C399.562 99.4688 396 98.1875 392.438 95.625C387.375 91.875 384.812 86.9062 384.75 80.7188ZM408.281 99.4688V86.1562C409.281 86.1562 410.406 85.625 411.656 84.5625C412.844 83.5 413.469 82.2188 413.531 80.7188V51.375C413.531 50.25 413 49.0625 411.938 47.8125C410.938 46.75 409.719 46.1875 408.281 46.125V32.9062C414.594 32.9062 419.656 35.625 423.469 41.0625C425.656 44.1875 426.75 47.125 426.75 49.875V80.7188C426.75 87.6562 423.656 92.9688 417.469 96.6562C414.219 98.5312 411.156 99.4688 408.281 99.4688ZM433.875 80.7188V49.875C433.875 46.5625 435.281 43.1875 438.094 39.75C441.844 35.25 446.594 32.9688 452.344 32.9062V46.125C449.781 46.1875 448.094 47.625 447.281 50.4375C447.156 50.875 447.094 51.1875 447.094 51.375V80.7188C447.094 83.2812 448.5 85.0312 451.312 85.9688C451.75 86.0938 452.062 86.1562 452.25 86.1562V99.4688C448.688 99.4688 445.125 98.1875 441.562 95.625C436.5 91.875 433.938 86.9062 433.875 80.7188ZM457.406 99.4688V86.1562C458.406 86.1562 459.531 85.625 460.781 84.5625C461.969 83.5 462.594 82.2188 462.656 80.7188V51.375C462.656 50.25 462.125 49.0625 461.062 47.8125C460.062 46.75 458.844 46.1875 457.406 46.125V32.9062C463.719 32.9062 468.781 35.625 472.594 41.0625C474.781 44.1875 475.875 47.125 475.875 49.875V80.7188C475.875 87.6562 472.781 92.9688 466.594 96.6562C463.344 98.5312 460.281 99.4688 457.406 99.4688Z" fill="#EB5757"/>
<defs>
<radialGradient id="paint0_radial" cx="0" cy="0" r="1" gradientUnits="userSpaceOnUse" gradientTransform="translate(69.7106 58.3382) rotate(-7.55358) scale(114.865 122.729)">
<stop stop-color="#FF3E80"/>
<stop offset="1" stop-color="#C41700"/>
</radialGradient>
<linearGradient id="paint1_linear" x1="3.75718" y1="107.216" x2="164.689" y2="96.7486" gradientUnits="userSpaceOnUse">
<stop stop-color="#FF9900"/>
<stop offset="1" stop-color="#C41700"/>
</linearGradient>
<radialGradient id="paint2_radial" cx="0" cy="0" r="1" gradientUnits="userSpaceOnUse" gradientTransform="translate(15.0679 31.6677) rotate(-7.58126) scale(70.5445 186.623)">
<stop stop-color="#FF3E80"/>
<stop offset="1" stop-color="#C41700"/>
</radialGradient>
<radialGradient id="paint3_radial" cx="0" cy="0" r="1" gradientUnits="userSpaceOnUse" gradientTransform="translate(116.016 22.4639) rotate(-7.56304) scale(90.4396 145.359)">
<stop stop-color="#FF3E80"/>
<stop offset="1" stop-color="#C41700"/>
</radialGradient>
</defs>
</svg>
